<?xml version="1.0" encoding="utf-8"?><svg viewBox="0 0 36 35" xmlns="http://www.w3.org/2000/svg" xmlns:xlink="http://www.w3.org/1999/xlink"><style>:root>svg{display:none}:root>svg:target{display:block}</style><svg viewBox="0 0 36 35" id="agreement" xmlns="http://www.w3.org/2000/svg"><path d="M29.666 5.833v17.5h-17.5v-17.5h17.5zm0-2.916h-17.5A2.925 2.925 0 009.25 5.833v17.5a2.925 2.925 0 002.916 2.917h17.5a2.925 2.925 0 002.917-2.917v-17.5a2.925 2.925 0 00-2.916-2.916zm-10.98 17.5l-5.061-5.105 2.041-2.056 3.02 3.034 7.48-7.54 2.042 2.056-9.523 9.61zM6.332 8.75H3.416v20.417a2.925 2.925 0 002.917 2.916H26.75v-2.916H6.333V8.75z"/></svg><svg viewBox="0 0 21 20" id="arrowleft" xmlns="http://www.w3.org/2000/svg"><path d="M14.306 18.333L5.972 10l8.334-8.333 1.479 1.479L8.93 10l6.854 6.854-1.48 1.48z"/></svg><svg viewBox="0 0 20 20" id="arrowright" xmlns="http://www.w3.org/2000/svg"><path d="M6.687 18.333l-1.479-1.479L12.062 10 5.208 3.146l1.48-1.48L15.02 10l-8.334 8.333z"/></svg><svg viewBox="0 0 18 14" id="mail" xmlns="http://www.w3.org/2000/svg"><path d="M2.333 13.667c-.458 0-.85-.164-1.177-.49A1.602 1.602 0 01.666 12V2c0-.458.164-.85.49-1.178.327-.326.72-.49 1.177-.489h13.334c.458 0 .85.164 1.177.49.327.327.49.72.49 1.177v10c0 .458-.164.85-.49 1.177-.328.327-.72.49-1.178.49H2.333zM9 7.833L2.333 3.667V12h13.334V3.667L9 7.833zm0-1.666L15.666 2H2.333L9 6.167zm-6.667-2.5V2v10-8.333z"/></svg><svg viewBox="0 0 32 32" id="map" xmlns="http://www.w3.org/2000/svg"><path d="M16 8.667a3.334 3.334 0 110 6.667 3.334 3.334 0 010-6.667zm0-6A9.333 9.333 0 0125.333 12c0 7-9.333 17.333-9.333 17.333S6.666 19 6.666 12A9.333 9.333 0 0116 2.667zm0 2.666A6.666 6.666 0 009.333 12c0 1.333 0 4 6.667 12.947C22.666 16 22.666 13.333 22.666 12A6.667 6.667 0 0016 5.333z"/></svg><svg viewBox="0 0 12 20" id="phone" xmlns="http://www.w3.org/2000/svg"><path d="M9.333.833H2.666a2.497 2.497 0 00-2.5 2.5v13.334c0 1.383 1.117 2.5 2.5 2.5h6.667c1.383 0 2.5-1.117 2.5-2.5V3.333c0-1.383-1.117-2.5-2.5-2.5zM10.166 15H1.833V3.333h8.333V15zm-2.5 2.5H4.333v-.833h3.333v.833z"/></svg></svg>